name Walk2.mot
datacolumns 19
datarows 22
range 3.93700000 3.95800000
endheader

                time	   L_ground_force_vx	   L_ground_force_vy	   L_ground_force_vz	   L_ground_force_px	   L_ground_force_py	   L_ground_force_pz	   R_ground_force_vx	   R_ground_force_vy	   R_ground_force_vz	   R_ground_force_px	   R_ground_force_py	   R_ground_force_pz	   L_ground_torque_x	   L_ground_torque_y	   L_ground_torque_z	   R_ground_torque_x	   R_ground_torque_y	   R_ground_torque_z	
          3.93700000	          0.07811018	          0.24978195	         -0.00325052	         -0.00034170	          0.00000000	         -0.00000623	        -15.69766435	        701.64104684	        -43.48009351	          0.20546231	          0.00000000	          0.12484228	          0.00000000	          0.00049143	          0.00000000	          0.00000000	          8.86978594	          0.00000000	
          3.93800000	          0.07641385	          0.24135832	         -0.00341078	         -0.00035220	          0.00000000	         -0.00000608	        -15.44127197	        700.92944200	        -43.45711412	          0.20570301	          0.00000000	          0.12487866	          0.00000000	          0.00048316	          0.00000000	          0.00000000	          8.81739314	          0.00000000	
          3.93900000	          0.07457300	          0.23273887	         -0.00354452	         -0.00036047	          0.00000000	         -0.00000592	        -15.18543228	        700.21444583	        -43.43329616	          0.20594357	          0.00000000	          0.12491452	          0.00000000	          0.00047376	          0.00000000	          0.00000000	          8.76501708	          0.00000000	
          3.94000000	          0.07260687	          0.22397281	         -0.00365351	         -0.00036668	          0.00000000	         -0.00000575	        -14.93020659	        699.49617595	        -43.40869194	          0.20618400	          0.00000000	          0.12494988	          0.00000000	          0.00046337	          0.00000000	          0.00000000	          8.71267316	          0.00000000	
          3.94100000	          0.07053355	          0.21510574	         -0.00373941	         -0.00037097	          0.00000000	         -0.00000557	        -14.67565311	        698.77476164	        -43.38334256	          0.20642432	          0.00000000	          0.12498475	          0.00000000	          0.00045211	          0.00000000	          0.00000000	          8.66037616	          0.00000000	
          3.94200000	          0.06836998	          0.20617975	         -0.00380389	         -0.00037350	          0.00000000	         -0.00000539	        -14.42182634	        698.05034109	        -43.35727789	          0.20666452	          0.00000000	          0.12501913	          0.00000000	          0.00044010	          0.00000000	          0.00000000	          8.60814019	          0.00000000	
          3.94300000	          0.06613201	          0.19723358	         -0.00384851	         -0.00037440	          0.00000000	         -0.00000520	        -14.16877649	        697.32305924	        -43.33051660	          0.20690462	          0.00000000	          0.12505302	          0.00000000	          0.00042745	          0.00000000	          0.00000000	          8.55597864	          0.00000000	
          3.94400000	          0.06383442	          0.18830275	         -0.00387479	         -0.00037381	          0.00000000	         -0.00000501	        -13.91654886	        696.59306585	        -43.30306645	          0.20714461	          0.00000000	          0.12508643	          0.00000000	          0.00041426	          0.00000000	          0.00000000	          8.50390414	          0.00000000	
          3.94500000	          0.06149097	          0.17941970	         -0.00388419	         -0.00037185	          0.00000000	         -0.00000481	        -13.66518333	        695.86051395	        -43.27492505	          0.20738448	          0.00000000	          0.12511936	          0.00000000	          0.00040063	          0.00000000	          0.00000000	          8.45192849	          0.00000000	
          3.94600000	          0.05911441	          0.17061394	         -0.00387812	         -0.00036866	          0.00000000	         -0.00000462	        -13.41471402	        695.12555834	        -43.24608092	          0.20762421	          0.00000000	          0.12515180	          0.00000000	          0.00038664	          0.00000000	          0.00000000	          8.40006274	          0.00000000	
          3.94700000	          0.05671654	          0.16191218	         -0.00385791	         -0.00036435	          0.00000000	         -0.00000442	        -13.16516933	        694.38835447	        -43.21651487	          0.20786377	          0.00000000	          0.12518374	          0.00000000	          0.00037238	          0.00000000	          0.00000000	          8.34831725	          0.00000000	
          3.94800000	          0.05430822	          0.15333844	         -0.00382484	         -0.00035903	          0.00000000	         -0.00000423	        -12.91657212	        693.64905812	        -43.18620151	          0.20810313	          0.00000000	          0.12521518	          0.00000000	          0.00035792	          0.00000000	          0.00000000	          8.29670174	          0.00000000	
          3.94900000	          0.05189945	          0.14491425	         -0.00378013	         -0.00035280	          0.00000000	         -0.00000403	        -12.66894022	        692.90782598	        -43.15511061	          0.20834226	          0.00000000	          0.12524610	          0.00000000	          0.00034334	          0.00000000	          0.00000000	          8.24522526	          0.00000000	
          3.95000000	          0.04949937	          0.13665872	         -0.00372493	         -0.00034577	          0.00000000	         -0.00000383	        -12.42228669	        692.16481673	        -43.12320835	          0.20858111	          0.00000000	          0.12527648	          0.00000000	          0.00032871	          0.00000000	          0.00000000	          8.19389615	          0.00000000	
          3.95100000	          0.04711631	          0.12858871	         -0.00366036	         -0.00033803	          0.00000000	         -0.00000364	        -12.17662004	        691.42019200	        -43.09045830	          0.20881966	          0.00000000	          0.12530632	          0.00000000	          0.00031407	          0.00000000	          0.00000000	          8.14272205	          0.00000000	
          3.95200000	          0.04475782	          0.12071894	         -0.00358744	         -0.00032967	          0.00000000	         -0.00000345	        -11.93194418	        690.67411645	        -43.05682224	          0.20905786	          0.00000000	          0.12533559	          0.00000000	          0.00029950	          0.00000000	          0.00000000	          8.09170992	          0.00000000	
          3.95300000	          0.04243073	          0.11306212	         -0.00350717	         -0.00032077	          0.00000000	         -0.00000327	        -11.68825828	        689.92675736	        -43.02226069	          0.20929569	          0.00000000	          0.12536428	          0.00000000	          0.00028503	          0.00000000	          0.00000000	          8.04086607	          0.00000000	
          3.95400000	          0.04014117	          0.10562909	         -0.00342046	         -0.00031142	          0.00000000	         -0.00000308	        -11.44555657	        689.17828404	        -42.98673343	          0.20953312	          0.00000000	          0.12539238	          0.00000000	          0.00027071	          0.00000000	          0.00000000	          7.99019611	          0.00000000	
          3.95500000	          0.03789459	          0.09842889	         -0.00332821	         -0.00030169	          0.00000000	         -0.00000290	        -11.20382821	        688.42886798	        -42.95019987	          0.20977011	          0.00000000	          0.12541986	          0.00000000	          0.00025659	          0.00000000	          0.00000000	          7.93970464	          0.00000000	
          3.95600000	          0.03569583	          0.09146894	         -0.00323122	         -0.00029165	          0.00000000	         -0.00000273	        -10.96305736	        687.67868397	        -42.91261923	          0.21000663	          0.00000000	          0.12544671	          0.00000000	          0.00024270	          0.00000000	          0.00000000	          7.88939492	          0.00000000	
          3.95700000	          0.03354913	          0.08475511	         -0.00313027	         -0.00028135	          0.00000000	         -0.00000256	        -10.72322351	        686.92791190	        -42.87395050	          0.21024265	          0.00000000	          0.12547292	          0.00000000	          0.00022907	          0.00000000	          0.00000000	          7.83926839	          0.00000000	
          3.95800000	          0.03145817	          0.07829186	         -0.00302607	         -0.00027087	          0.00000000	         -0.00000239	        -10.48430189	        686.17673858	        -42.83415210	          0.21047815	          0.00000000	          0.12549848	          0.00000000	          0.00021574	          0.00000000	          0.00000000	          7.78932437	          0.00000000	
